/* XPM */
static char *ad099ec645ca41ffd0cf938fcc81eecc[] = {
/* columns rows colors chars-per-pixel */
"16 16 166 2 ",
"   c #C50000",
".  c #D30200",
"X  c #D60000",
"o  c #D90700",
"O  c #D50A00",
"+  c #D61C13",
"@  c #E2180D",
"#  c #FF1208",
"$  c #FF1D12",
"%  c #CC221A",
"&  c #DD2017",
"*  c #D7271E",
"=  c #E0241B",
"-  c #EC271E",
";  c #F62117",
":  c #FF2217",
">  c #FF241A",
",  c #FF251A",
"<  c #FB271E",
"1  c #FF271D",
"2  c #FF281D",
"3  c #FF291E",
"4  c #FF2A1F",
"5  c #DF2A21",
"6  c #CD3C35",
"7  c #DD3C35",
"8  c #E02C23",
"9  c #E52C23",
"0  c #E22F26",
"q  c #F22920",
"w  c #F42B22",
"e  c #FA2A20",
"r  c #FF2B20",
"t  c #FF2B21",
"y  c #FB2C22",
"u  c #FF2C22",
"i  c #FE2D23",
"p  c #FF2E23",
"a  c #FD2F25",
"s  c #FF2E24",
"d  c #EA3027",
"f  c #EF342B",
"g  c #ED372D",
"h  c #FF3026",
"j  c #FF3127",
"k  c #FF332A",
"l  c #FD352B",
"z  c #FF342A",
"x  c #FF352B",
"c  c #FF362D",
"v  c #FF372D",
"b  c #FF392F",
"n  c #EB3830",
"m  c #F13B33",
"M  c #F43D34",
"N  c #FF3930",
"B  c #FF3B32",
"V  c #FF3C33",
"C  c #FF3D33",
"Z  c #F93F36",
"A  c #FF3D34",
"S  c #FF3E34",
"D  c #CC443D",
"F  c #EA433A",
"G  c #FF4036",
"H  c #FF4037",
"J  c #FF4138",
"K  c #FF4238",
"L  c #FF4339",
"P  c #FF433A",
"I  c #FF443A",
"U  c #FF443B",
"Y  c #FB453C",
"T  c #F9473F",
"R  c #FF453C",
"E  c #FF463C",
"W  c #FE463D",
"Q  c #FF463E",
"!  c #FF473E",
"~  c #FD483F",
"^  c #FF483E",
"/  c #FF483F",
"(  c #AA7773",
")  c #D04B45",
"_  c #D25C57",
"`  c #FA4840",
"'  c #FA4941",
"]  c #FC4940",
"[  c #FF4940",
"{  c #FF4941",
"}  c #FF4A41",
"|  c #FF4B43",
" . c #FF4C43",
".. c #FF4D44",
"X. c #FF4E45",
"o. c #FF4F46",
"O. c #FA5149",
"+. c #FF5048",
"@. c #FF5149",
"#. c #FF5249",
"$. c #FF534A",
"%. c #FF534B",
"&. c #FF554D",
"*. c #FF564D",
"=. c #FF574F",
"-. c #F25850",
";. c #F25D56",
":. c #EB6258",
">. c #FF635B",
",. c #FF635C",
"<. c #FF655E",
"1. c #D16964",
"2. c #DB6B66",
"3. c #D0716C",
"4. c #D3726D",
"5. c #D07B77",
"6. c #FF6760",
"7. c #FF6860",
"8. c #FF6961",
"9. c #FF6F68",
"0. c #EB776D",
"q. c #FF7069",
"w. c #FF7169",
"e. c #FF766F",
"r. c #F97771",
"t. c #F87973",
"y. c #FF7871",
"u. c #FF7973",
"i. c #F17F79",
"p. c #B3807F",
"a. c #E7847B",
"s. c #F1827D",
"d. c #FF837E",
"f. c #7ABEBA",
"g. c #9D9F9A",
"h. c #D48D8A",
"j. c #D4928F",
"k. c #DC9693",
"l. c #D69C99",
"z. c #E78681",
"x. c #FF8680",
"c. c #F78984",
"v. c #FF8882",
"b. c #D9AFAD",
"n. c #DCBCBA",
"m. c #DBBDBC",
"M. c #ECB2AF",
"N. c #EDBBB9",
"B. c #EFBCBA",
"V. c #EAC2C0",
"C. c #F0C4C1",
"Z. c #E1DADA",
"A. c #E3DFDF",
"S. c #F2E2E1",
"D. c #EDF7F7",
"F. c #E6FFFF",
"G. c #E8FFFF",
"H. c #E9FFFF",
"J. c #EAFFFF",
"K. c #EEFEFE",
"L. c #EEFFFF",
"P. c #EFFFFF",
"I. c #F1F7F7",
"U. c #F3FFFF",
"Y. c #F4FDFE",
"T. c None",
/* pixels */
"T.T.T.T.T.7.%.R / #.,.T.T.T.T.T.",
"T.T.T.7.b z S / / H 1 , q.T.T.T.",
"T.T.6., L } S i 4 k 0.a.< #.T.T.",
"T.v.$ } U 4 R t.r.O.g.f.:.# d.T.",
"T.j S / a s.K.G.F.A.( ( F V a T.",
"y.4 } i i.G.b.D _ 4.F n m } 4 e.",
"&.B R ; V.G.% o 5 0 q z ../ V #.",
"R / } w 2.G.I.S.U.U.C.T B R } L ",
"R } } R 5 1.n.m.j.l.F.N.e R } U ",
"#.S R } ' @ . O X   Z.D.f L H ..",
"q.t } R z c.B.;.-.M.K.k.- } t 9.",
"T.j H } y z.F.K.K.G.h.* Z L i T.",
"T.x.: / / 9 ) 5.3.6 + M } : u.T.",
"T.T.&.4 U ' d & = g } R 4 &.T.T.",
"T.T.T.9.b z H } / L z b ,.T.T.T.",
"T.T.T.T.T.,...R R ..>.T.T.T.T.T."
};
