/* XPM */
static char *_5d7d246aaad4e69eab9476c2ada058b[] = {
/* columns rows colors chars-per-pixel */
"64 64 256 2 ",
"   c #252635",
".  c #421522",
"X  c #403538",
"o  c #59555C",
"O  c #654849",
"+  c #645755",
"@  c #796A5D",
"#  c #715F61",
"$  c #76696E",
"%  c #BB0500",
"&  c #BF1109",
"*  c #BF1C14",
"=  c #C70700",
"-  c #C70A01",
";  c #D50F05",
":  c #C3150D",
">  c #CD150D",
",  c #D6190F",
"<  c #C71510",
"1  c #C31C14",
"2  c #CB1911",
"3  c #D31B12",
"4  c #D81E15",
"5  c #E30D02",
"6  c #EE160C",
"7  c #E71B11",
"8  c #FF1D12",
"9  c #C5231B",
"0  c #CC221A",
"q  c #D3251C",
"w  c #DF241A",
"e  c #DC281F",
"r  c #E92116",
"t  c #E5261C",
"y  c #EB241B",
"u  c #E6281E",
"i  c #ED291F",
"p  c #F42116",
"a  c #FF2116",
"s  c #F3241A",
"d  c #FE251B",
"f  c #F7281F",
"g  c #FE291E",
"h  c #C52A23",
"j  c #CA2B23",
"k  c #C52F28",
"l  c #CB2F28",
"z  c #D22C24",
"x  c #D82C23",
"c  c #C5322B",
"v  c #CB342D",
"b  c #D2342D",
"n  c #DA342C",
"m  c #C93730",
"M  c #C43933",
"N  c #CD3932",
"B  c #D43B34",
"V  c #DB3D35",
"C  c #D73F38",
"Z  c #E32C23",
"A  c #EC2C23",
"S  c #F42C22",
"D  c #FE2D23",
"F  c #E43027",
"G  c #E6362E",
"H  c #EC332A",
"J  c #E1382F",
"K  c #EA382F",
"L  c #FF3026",
"P  c #F4342B",
"I  c #FF352B",
"U  c #F4382F",
"Y  c #FF392F",
"T  c #E23E37",
"R  c #EB3C34",
"E  c #E43F38",
"W  c #F43A31",
"Q  c #FF3C33",
"!  c #C7463F",
"~  c #CB423B",
"^  c #DD4139",
"/  c #E44037",
"(  c #EF4037",
")  c #E54139",
"_  c #EC4239",
"`  c #EA483F",
"'  c #F34037",
"]  c #FF4037",
"[  c #F4443B",
"{  c #FE473E",
"}  c #F4483F",
"|  c #FE483F",
" . c #977157",
".. c #967B6F",
"X. c #CC4A44",
"o. c #D34943",
"O. c #DC4C46",
"+. c #D1524C",
"@. c #DE534C",
"#. c #CD5752",
"$. c #CE5A55",
"%. c #DF5752",
"&. c #D05E59",
"*. c #EC4D45",
"=. c #F44A42",
"-. c #FF4A42",
";. c #EB544E",
":. c #FF5047",
">. c #F4554E",
",. c #FF544B",
"<. c #E25B55",
"1. c #EF5D56",
"2. c #E55F58",
"3. c #FF5650",
"4. c #F45953",
"5. c #FF5C54",
"6. c #F15F58",
"7. c #FF5F58",
"8. c #CF625D",
"9. c #D4605B",
"0. c #E1655F",
"q. c #EA655F",
"w. c #F1615A",
"e. c #FF645C",
"r. c #D16762",
"t. c #D96660",
"y. c #DC6A64",
"u. c #D36F6A",
"i. c #D3716C",
"p. c #DD726E",
"a. c #CD7A76",
"s. c #D37571",
"d. c #DB7975",
"f. c #D57C78",
"g. c #EE6660",
"h. c #E46A64",
"j. c #EF6F69",
"k. c #FF6B64",
"l. c #E5716C",
"z. c #EC746F",
"x. c #FF736C",
"c. c #EA7671",
"v. c #E77C77",
"b. c #EA7A75",
"n. c #EC7D78",
"m. c #F17670",
"M. c #FF7771",
"N. c #FF7B75",
"B. c #FF7F79",
"V. c #8A857B",
"C. c #B18E74",
"Z. c #A7927F",
"A. c #D5817D",
"S. c #FF807A",
"D. c #817B8E",
"F. c #859181",
"G. c #9F9381",
"H. c #9A9793",
"J. c #B39B8D",
"K. c #BE9D8A",
"L. c #A69C9D",
"P. c #8CA59A",
"I. c #94A49B",
"U. c #A8A196",
"Y. c #A5A891",
"T. c #AEA99F",
"R. c #9BB8AF",
"E. c #ABACAA",
"W. c #BEA9A3",
"Q. c #A5B4A9",
"!. c #A8BDB5",
"~. c #D68682",
"^. c #DA8682",
"/. c #D78986",
"(. c #D78C88",
"). c #DA928E",
"_. c #C39F9E",
"`. c #DA9794",
"'. c #DA9996",
"]. c #D99F9C",
"[. c #EC8D88",
"{. c #FF8680",
"}. c #FF8984",
"|. c #EC908C",
" X c #FF928D",
".X c #E89291",
"XX c #EC9995",
"oX c #EC9B98",
"OX c #CAA38F",
"+X c #ECA09D",
"@X c #C9ACA2",
"#X c #DCA6A3",
"$X c #DEA8A5",
"%X c #D2AEAA",
"&X c #C8BEAB",
"*X c #D1BAAC",
"=X c #C3B7B1",
"-X c #C0BBB6",
";X c #DEB3B1",
":X c #E0A3A0",
">X c #EBA3A1",
",X c #E3A9A6",
"<X c #EDAAA7",
"1X c #EAAEAB",
"2X c #E2B2AC",
"3X c #E3B2B1",
"4X c #ECB5B2",
"5X c #E1B9B7",
"6X c #EAB9B7",
"7X c #E2BDBB",
"8X c #ECBDBC",
"9X c #A7C0BA",
"0X c #C5C5BE",
"qX c #D0C3B9",
"wX c #E2C0BE",
"eX c #EBC1BF",
"rX c #A4C3C1",
"tX c #BEC8C0",
"yX c #C4C4C5",
"uX c #C1C8CB",
"iX c #C9D0D9",
"pX c #DBD5D5",
"aX c #D6DFDF",
"sX c gainsboro",
"dX c #E3C4C3",
"fX c #EAC6C4",
"gX c #EAC9C7",
"hX c #E4CBCA",
"jX c #EBCCCB",
"kX c #E5D0CF",
"lX c #E6D5D4",
"zX c #EBD5D5",
"xX c #E6D8D7",
"cX c #E4DBDA",
"vX c #EADEDD",
"bX c #CEE8E5",
"nX c #D3E5E6",
"mX c #DDEDEE",
"MX c #CBF2F4",
"NX c #D6F2F3",
"BX c #DFF5F6",
"VX c #D9FDFF",
"CX c #E4E4E4",
"ZX c #EBE3E3",
"AX c #EBEBEB",
"SX c #E0F1EE",
"DX c #EAEFF0",
"FX c #E6F4F4",
"GX c #ECF3F3",
"HX c #E0F7F8",
"JX c #EEF7F8",
"KX c #E5FEFE",
"LX c #ECFDFE",
"PX c #F1FFFF",
"IX c #FDFFFF",
"UX c None",
/* pixels */
"UXUXUXUXUXUXUXUXUXUXUXUXUXUXUXUXUXUXUXUXUXUXUXUXUXUXx.e.5.,.,.-.| :.,.3.e.k.UXUXUXUXUXUXUXUXUXUXUXUXUXUXUXUXUXUXUXUXUXUXUXUXUXUX",
"UXUXUXUXUXUXUXUXUXUXUXUXUXUXUXUXUXUXUXUXUXUXN.,.| Q Y Q Q Q Q { { ] ] Q Y Y Q { ,.x.UXUXUXUXUXUXUXUXUXUXUXUXUXUXUXUXUXUXUXUXUXUX",
"UXUXUXUXUXUXUXUXUXUXUXUXUXUXUXUXUXUXUXUX,.Q I Q ] { { { | { | { | { | { { { | { Q I Q ,.UXUXUXUXUXUXUXUXUXUXUXUXUXUXUXUXUXUXUXUX",
"UXUXUXUXUXUXUXUXUXUXUXUXUXUXUXUXUXUX,.I Q { { { { { { { { { { { { { { { { { { { { { { Q I -.B.UXUXUXUXUXUXUXUXUXUXUXUXUXUXUXUXUX",
"UXUXUXUXUXUXUXUXUXUXUXUXUXUXUXUX:.D Q { | { { { | { { { { | | { { { | { { { { | { { { { -.Q D { UXUXUXUXUXUXUXUXUXUXUXUXUXUXUXUX",
"UXUXUXUXUXUXUXUXUXUXUXUXUXUXe.L Q | { { { { | { { { | { { { { { | { { { | { { { { { { { { { { Q L 5.UXUXUXUXUXUXUXUXUXUXUXUXUXUX",
"UXUXUXUXUXUXUXUXUXUXUXUXUXQ D -.| { { { | { { | | { | { { { { { { { | { | { { { { { { -.{ { { -.-.L Y UXUXUXUXUXUXUXUXUXUXUXUXUX",
"UXUXUXUXUXUXUXUXUXUXUXx.I Y -.{ | { { | { { { { { { { { | { | { | { { { { { { | { { { { { { { { { -.Q D N.UXUXUXUXUXUXUXUXUXUXUX",
"UXUXUXUXUXUXUXUXUXUXB.d ] -.{ { { { { { { { | { { { { { { { { { { { | { { { { { { [ { Y D Y [ -.{ -.-.] D e.UXUXUXUXUXUXUXUXUXUX",
"UXUXUXUXUXUXUXUXUXe.a { | { { { { { { { { | { { { | { | | { | { { { { { { { { { -.P L k.N.k.I D -.[ { { { L :.UXUXUXUXUXUXUXUXUX",
"UXUXUXUXUXUXUXUXB.a { | | { { { { { { { { { { { | { { { { { { | { { { | { { { -.S ,.3X-X0XyXwX3.f -.{ { { { D ,.UXUXUXUXUXUXUXUX",
"UXUXUXUXUXUXUXS.8 { | { { { { | -.{ { { { | { | { { { | { { { { | { { { { { [ U -.hXP. .OXJ.Q.sX3.S [ { { { { d M.UXUXUXUXUXUXUX",
"UXUXUXUXUXUXUXd ] | { { { { { { { { { { { { { { { { { { { { { { { { | [ | [ [ S oXR.C.*X=XqXK.!.,XS [ [ { { -.{ 8 UXUXUXUXUXUXUX",
"UXUXUXUXUXUXI I | | { | { | | { { { { { { { { { | { { { { [ Q U I I Y ' { [ ( Q _.F.&XuXiXyXL.@ W.5.W { [ { { -.Q D UXUXUXUXUXUX",
"UXUXUXUXUXk.d -.| | { { { { { { { { { { { { { { [ { U g d D [ =.4.>.} U s S R [ %XI.T.$ D.  o Z.@X4.U [ { { { { -.D :.UXUXUXUXUX",
"UXUXUXUXUXa | { { { { { | { | { { -.{ { { { -.[ D s =.m.+XfXxXZXAXAXvXgX+Xq.y 5 >XrXL.# . X V.Y.3XH R [ [ { { { { -.d }.UXUXUXUX",
"UXUXUXUX:.L -.{ { { { { { { { -.{ { -.{ { -.D s 6.<XZXLXLXKXLXJXFXGXFXKXKXVX;Xn F aX9X+ O ..G.bXm.t ( [ [ { { { { { Q Y UXUXUXUX",
"UXUXUXUXa -.{ { { { { -.{ { { { { { [ -.[ p =.4XLXLXJXAXAXAXAXAXAXAXAXAXCXCXVXnXX.%.pXE.H.0XmX.X4 T _ [ [ { { -.{ { -.d B.UXUXUX",
"UXUXUX:.Y -.{ { { { { { { { { { { { -.W p m.FXLXGXAXAXAXAXAXAXAXAXAXAXAXCXCXpXNXMX: 9.IXIXZXp.3 V ) _ [ [ { { { { { { Q Q UXUXUX",
"UXUXUXd { { { { { { { { { { { { [ { W s [.KXLXAXAXAXAXAXJXPXPXPXPXPXLXDXCXcXmXmXa.< s.hXs.h 2 B T E _ [ [ { { { { { { -.d {.UXUX",
"UXUX5.L { { { | { { { { { { { { [ [ s v.LXGXAXAXAXAXPXPXZX3X).A.^.'.dXGXLXKXBXr.> N ~ 9 2 l C V T _ [ [ { { { { { { { { Y :.UXUX",
"UXUXI { { { { { { { { -.{ { { { | P *.JXLXAXAXZXGXPXkXs.N 1 : : : : 9 +.7XFX&.> b B b b C V V E ) ( [ [ [ { { { { { | { { D UXUX",
"UX}.D | | { { | { { { { { -.{ [ [ y 1XLXAXAXAXGXPX'.1 : h m m N m m m 2 j o.q B C V V V V T E R _ [ [ { { -.{ { | { { { { D N.UX",
"UX5.I { { { { { { { { { { { { [ U _ ZXJXAXAXAXPX'.% h N N N B B B B N B b z V V V T T ) E _ _ [ [ [ -.[ { { { { { { { { { Y :.UX",
"UX{ Q | { | { | { | { { { { [ [ A h.LXAXAXAXLXvXk 9 N N B B V B V C V C V V V ) ) ) _ _ _ [ [ [ [ [ [ { { | { | | { { { { { Y UX",
"UXQ { | { { { { { { | { { [ [ [ y l.LXAXAXAXPX3X1 m B C B V E T T T T T T T E ) _ _ ( _ [ =.[ [ | { { { { { { { { { | { | | I UX",
"B.L { { | { | { { { { { -.{ [ [ t h.LXDXAXAXPXkX9 j C B T T ) ) E E T H G G K ( ( [ [ [ [ [ { { { { | { { { { { | { | { { { D M.",
"k.Y { | { { { { { | { { [ -.[ _ F @.DXJXAXAXAXPX~.= , e Z Z y r r A H T _ _ K A s S ' [ [ { -.{ { { { { { | | { { { { { { { I e.",
"5.Y { { { | | { | { { { { [ [ ( T x gXLXAXAXAXGXLX,Xy.<.<.q.c.[.+X6XfXzXzXzXjX6XXXg.S S [ | { | { | { { { { | { { { { { { { ] :.",
",.Q | { { { { { { { | { { { [ ( ) , ^.PXAXAXAXZXGXPXLXGXDXJXLXLXLXLXLXLXLXLXLXLXLXLXgX4.s { [ | { { | { { | { { | { | { { { | { ",
",.Q | { { { { { | { | { { [ [ [ E n z CXPXAXAXAXAXAXAXGXGXDXDXAXAXAXAXAXAXAXAXAXAXDXLXLXj.p [ [ { { { { { { { { { { { | { { { { ",
"-.{ | { | { { | { { { { { [ [ [ _ ^ 3 +.LXPXAXAXAXAXAXAXAXAXAXAXAXAXAXAXAXAXAXAXAXAXAXLXLX6.f | [ { | { { | { | { { { { | { { { ",
"| { | { { | { | | { | { { { [ [ _ / V < $.AXPXLXGXAXAXAXAXAXAXGXJXLXLXPXPXPXGXAXAXAXAXAXLXzXS W -.[ -.{ { { { { { { -.{ { { { { ",
":.] { { { { { { { { { { | { [ [ ( ) ^ C 2 m '.xXJXPXPXLXPXPXPXJXAXlXdX;X5XhXJXPXGXAXAXAXAXLXb.y [ [ { -.{ { -.{ { { { { { { { { ",
":.] | { { { { { { { { { { { { [ [ _ T V C 0 : k $.s./.(./.A.u.&.X.m h 9 * h ! #XPXAXAXAXAXLX6Xu ' { [ { { { { { { { { { { { -.{ ",
"7.Y { { { | | { | { { { { { { [ [ ( ) T V C N b 1 1 : : : 1 1 1 9 l v m m k * % ].PXAXAXAXLXvX` U [ [ { { { { { { { { { { { ] -.",
"e.Y { { { { | { { | { { { { { { [ [ [ ) ) V C B N N N N N N N B N B B N m m N * M AXGXAXAXGXDX0.A [ [ -.{ { { { | { { { | { Y e.",
"M.I { | { | { { { { | { | { { [ } [ [ ( _ ) V V V C B B B B B B B B B B B N m m h hXLXAXAXAXLXh.u _ [ { { { { -.{ { { { { { L k.",
"UXI { { { { { { { { { { { { { { | [ [ [ _ _ R E T V T V V T / V T T T V V V B h k cXLXAXAXDXJX0.u _ [ [ { { { { { { { { { -.L UX",
"UX{ ] { { | { | { { | { | { { { { { | [ [ [ ( ` H A ) _ ) ) ) ) ) R ) ) T V C - u.PXDXAXAXJXAXO.F ( [ -.{ { { { { | { { { { Q UX",
"UX5.I | | { | { { { | { | { { { { { { [ [ [ [ S *.g.y ( _ _ _ ( ( _ _ _ ) J ; o.AXJXAXAXAXLXdXe T ( [ { { { { { { { { { | Q :.UX",
"UXS.D | { { { { { | { { { { | { { { | [ { =.f U CXLXq.6 A ( [ [ [ [ ( H 7 t p.GXLXAXAXAXAXLXd.4 E [ [ [ { { | { | { { { | D k.UX",
"UXUXY { | { { | { { { { { { { { { { [ { | s _ ZXLXJXLXXX*.A s y y s A *.v.gXLXJXAXAXAXAXPXgX0 J R _ [ -.{ { { | { | { | | D UXUX",
"UXUX3.I | { { { { | { { | { | { { { { [ U w.AXLXAXAXGXLXAX8XoX[.|.>XfXZXLXLXAXAXAXAXAXPXAXm q ^ ) [ [ [ { { { { { { { { Q -.UXUX",
"UXUXUXd | { { | { | { | | { | { { { | ' S vXLXAXAXAXAXAXJXLXLXLXLXLXLXJXAXAXAXAXAXAXPXAX~ 2 ^ / _ [ [ -.| { { { { | { -.d M.UXUX",
"UXUXUX] Q | { { { { { { { { { { { | [ [ H ;.AXLXAXAXAXAXAXAXAXAXAXAXAXAXAXAXAXAXPXPX7Xl 2 C V ) _ [ { [ { { { | { { { ] I UXUXUX",
"UXUXUX Xa | { { { | | { { { { { | { [ [ _ r ) vXPXJXAXAXAXAXAXAXAXAXAXAXAXJXPXPXlXs.1 9 C V ) _ [ [ [ -.| { { | { | -.d M.UXUXUX",
"UXUXUXUXQ Y | { { { { { { | | { | [ | [ _ _ w n :XJXPXPXJXGXDXDXGXJXPXPXPXGX7Xs.h : b C B T _ ( [ [ { { { { { { { { Q D UXUXUXUX",
"UXUXUXUXUXd | | | | { { { { { { { { [ [ [ _ ) z 2 +.`.hXAXJXJXLXGXZXhX#Xf.X.1 : l B B V T ) [ [ [ { { { { { { { { -.d N.UXUXUXUX",
"UXUXUXUXUX5.d -.| | { { | { { | -.[ [ [ ( _ ) ^ C 0 : j X.$.8.8.#.! h 1 : 9 N B B C V ) ) ( [ [ { { { { | { { | -.I { UXUXUXUXUX",
"UXUXUXUXUXUXd Q | | { | { { { { { { { [ [ ( ) V B B B v h 1 1 1 0 h l m N B C B V V ) ) _ [ [ { [ { { { { { { { ] d UXUXUXUXUXUX",
"UXUXUXUXUXUXUXa { | { { { { | { { { { [ [ _ _ ) E V B B B N B B N B B B C V V V ) _ ( [ [ [ [ { -.{ { { | { { { d B.UXUXUXUXUXUX",
"UXUXUXUXUXUXUXN.d { { { | { { | { { { { [ [ ( [ R ) V V V V C B B V B V T T ) ) _ _ [ [ [ { { { { { { { { { -.D :.UXUXUXUXUXUXUX",
"UXUXUXUXUXUXUXUX5.L { { { { { { { { { [ | [ [ [ ( _ _ ) T T T T E T E _ ) _ _ ( ( [ [ [ [ { | { { { { { { -.D 3.UXUXUXUXUXUXUXUX",
"UXUXUXUXUXUXUXUXUX:.L { | { { { { | | [ { { [ [ [ [ [ _ _ _ ) ) _ _ ( _ [ [ [ [ [ [ -.{ { { { { { { { { -.D Q UXUXUXUXUXUXUXUXUX",
"UXUXUXUXUXUXUXUXUXUX7.g { | { | { { | | { { { [ [ [ [ [ [ [ [ [ [ [ [ [ [ [ [ { { { { { { { | { { { -.{ D ,.UXUXUXUXUXUXUXUXUXUX",
"UXUXUXUXUXUXUXUXUXUXUXN.d Q -.| { { { { { | | { | [ { [ [ [ [ [ [ [ [ { [ { { [ { { { { { | { | { -.] D 5.UXUXUXUXUXUXUXUXUXUXUX",
"UXUXUXUXUXUXUXUXUXUXUXUXUXQ I | | { | { { { { { | { { { { { { { { | { { { { { | { { | { { { { | { Y I N.UXUXUXUXUXUXUXUXUXUXUXUX",
"UXUXUXUXUXUXUXUXUXUXUXUXUXUX:.D ] -.{ { { { { { { { { { | { { | | | { | { | { | { { { | { | -.] L { UXUXUXUXUXUXUXUXUXUXUXUXUXUX",
"UXUXUXUXUXUXUXUXUXUXUXUXUXUXUXB.Q D ] -.| { { | { { { { | { { { { { { { { { { { | { { { -.] D Y M.UXUXUXUXUXUXUXUXUXUXUXUXUXUXUX",
"UXUXUXUXUXUXUXUXUXUXUXUXUXUXUXUXUXx.] L Q | | | | { { { | | { | { { { { { { { | { | { Q I Q x.UXUXUXUXUXUXUXUXUXUXUXUXUXUXUXUXUX",
"UXUXUXUXUXUXUXUXUXUXUXUXUXUXUXUXUXUXUXx.:.Y I Q { { { { | | { { { { { { | { { { ] I Y -.e.UXUXUXUXUXUXUXUXUXUXUXUXUXUXUXUXUXUXUX",
"UXUXUXUXUXUXUXUXUXUXUXUXUXUXUXUXUXUXUXUXUXUXe.,.] Y I Y ] | | { { { { { Y Y Y Q :.7.UXUXUXUXUXUXUXUXUXUXUXUXUXUXUXUXUXUXUXUXUXUX",
"UXUXUXUXUXUXUXUXUXUXUXUXUXUXUXUXUXUXUXUXUXUXUXUXUXUXk.5.-.{ { { { { { :.5.e.UXUXUXUXUXUXUXUXUXUXUXUXUXUXUXUXUXUXUXUXUXUXUXUXUXUX"
};
