/* XPM */
static char *_234d504a2a7425dea52e2a96415a00b[] = {
/* columns rows colors chars-per-pixel */
"32 32 157 2 ",
"   c #433745",
".  c #B90000",
"X  c #C80400",
"o  c #C3140C",
"O  c #C2180F",
"+  c #D41007",
"@  c #C61B12",
"#  c #CA1C13",
"$  c #D11E16",
"%  c #DA1F16",
"&  c #EF180E",
"*  c #F01F15",
"=  c #CB2017",
"-  c #C5221A",
";  c #CD251D",
":  c #D2231A",
">  c #DD2219",
",  c #DE281F",
"<  c #E52319",
"1  c #EC261C",
"2  c #FF2117",
"3  c #F32319",
"4  c #FC261C",
"5  c #F2291F",
"6  c #FE291E",
"7  c #C42A23",
"8  c #C62F28",
"9  c #D42D25",
"0  c #DC2E25",
"q  c #CE342D",
"w  c #D1332B",
"e  c #DB342C",
"r  c #C93F39",
"t  c #D13931",
"y  c #DC3B33",
"u  c #EA2A21",
"i  c #F52E25",
"p  c #FD2D23",
"a  c #E3332B",
"s  c #EA362D",
"d  c #F13027",
"f  c #FF3126",
"g  c #F0372F",
"h  c #FE352B",
"j  c #FF382E",
"k  c #E23E36",
"l  c #EC3C34",
"z  c #F13D34",
"x  c #FF3D33",
"c  c #CD453F",
"v  c #D9403B",
"b  c #ED4037",
"n  c #E44139",
"m  c #EC433B",
"M  c #FF4037",
"N  c #F4453C",
"B  c #FE473E",
"V  c #FF483F",
"C  c #CE534D",
"Z  c #CB5650",
"A  c #C85854",
"S  c #CF5D58",
"D  c #D05E59",
"F  c #E64841",
"G  c #E94840",
"H  c #F34D45",
"J  c #FF4A42",
"K  c #ED524B",
"L  c #FF5047",
"P  c #F5564E",
"I  c #FF544C",
"U  c #FF584F",
"Y  c #E35952",
"T  c #EE5F59",
"R  c #F35E57",
"E  c #FF5B52",
"W  c #CF645F",
"Q  c #D5635E",
"!  c #E0625D",
"~  c #E9625C",
"^  c #F0635D",
"/  c #FE635C",
"(  c #CF6661",
")  c #D16864",
"_  c #D06D68",
"`  c #DD706B",
"'  c #D37B76",
"]  c #D57C78",
"[  c #EF6760",
"{  c #EF6B65",
"}  c #F36761",
"|  c #FF6A62",
" . c #FF736C",
".. c #E07A72",
"X. c #EE7A75",
"o. c #FF7872",
"O. c #F27E79",
"+. c #D6837F",
"@. c #DF817C",
"#. c #E4897E",
"$. c #FF827B",
"%. c #7B958B",
"&. c #7E9495",
"*. c #8CA19C",
"=. c #B8A097",
"-. c #92AFA9",
";. c #A2A4A4",
":. c #A4BCAF",
">. c #B1B2B2",
",. c #DC8480",
"<. c #D9908C",
"1. c #D99692",
"2. c #DB9996",
"3. c #DA9D9A",
"4. c #ED8682",
"5. c #ED8983",
"6. c #E98F8A",
"7. c #FF8681",
"8. c #FF8E89",
"9. c #F0948F",
"0. c #E49491",
"q. c #ED9A95",
"w. c #E49E9A",
"e. c #ED9F9B",
"r. c #F09894",
"t. c #C3A99E",
"y. c #E3A29C",
"u. c #DCA8A6",
"i. c #DDAEAB",
"p. c #CFB7AE",
"a. c #DFB5B3",
"s. c #E4A7A4",
"d. c #E6ACAA",
"f. c #ECB3B1",
"g. c #EDB9B7",
"h. c #EBBDBA",
"j. c #C6C1B2",
"k. c #E2C3C2",
"l. c #EAC5C4",
"z. c #E4C8C7",
"x. c #E5CCCB",
"c. c #EDC9C8",
"v. c #E6D0CF",
"b. c #E5D4D3",
"n. c #EBD7D6",
"m. c #E5DFDE",
"M. c #EADDDD",
"N. c #D5FFFF",
"B. c #E8E3E3",
"V. c #E9EFEF",
"C. c #ECF5F5",
"Z. c #E2F7F8",
"A. c #EDF7F8",
"S. c #E7FFFF",
"D. c #ECFEFE",
"F. c #F1FFFF",
"G. c None",
/* pixels */
"G.G.G.G.G.G.G.G.G.G.G.G.| E L B J L U / G.G.G.G.G.G.G.G.G.G.G.G.",
"G.G.G.G.G.G.G.G.G. .B j h j M B B M x h j J | G.G.G.G.G.G.G.G.G.",
"G.G.G.G.G.G.G.o.x f M V J B B B B B B B B x h x o.G.G.G.G.G.G.G.",
"G.G.G.G.G.G.L f M V B B B B J B B B B J J x j x f U G.G.G.G.G.G.",
"G.G.G.G.G.x f B J B B B B V B B V B B B h I / x x h j G.G.G.G.G.",
"G.G.G.G.x p J B B B B B B B B B V B J h ^ t.j.y.J M h h G.G.G.G.",
"G.G.G.U 4 J B B B B B V B h 6 4 6 4 6 B =.:.>.-...h B p L G.G.G.",
"G.G.8.2 J B V B B J V p p P O.r.e.9.T i t.&.  %.#.i B J 2 $.G.G.",
"G.G.j x V B V B J M 4 R g.V.S.S.D.S.Z.3.,.;.*.p.F g N J x f G.G.",
"G.$.4 J B V B V B 3 5.S.S.D.F.F.F.F.S.N.A 0.k.y 0 N B B J 4 o.G.",
"G.V x B B B V V 4 X.S.D.F.z.] D S <.m.+.; q ; 0 m N B B J x M G.",
"G.f B B V B B x l M.S.F.2.O o = @ # t 9 y y k l N B B J B B p G.",
" .f J B B B B i ~ A.F.b.O ; y y y e , a l m N N B B V B B J f  .",
"E x B B B B J d Y C.D.B.c + < u s l F z 5 p J J B B B B B B x L ",
"L M V V V V B z 0 v.D.C.M.w.e.f.c.n.B.n.g.} 5 B J B B V B B B J ",
"V B V B B B B N > W F.F.F.D.D.D.D.F.F.D.D.S.X.4 J B B B B B B B ",
"B B B V B B B N m $ ) b.C.D.D.C.B.x.x.A.A.S.A.H h V B B B B J B ",
"L B B B V V B B N y $ 8 Z W W C r 8 7 Z n.A.S.6.3 B B B B V B B ",
"E j V B B B V B N m n e ; $ = ; 9 w q . ' F.D.d.1 B B B V B x U ",
" .f V B B V B B B B N l < a n k n n e X 1.F.F.s.< N B B B B h / ",
"G.f B B B B V V B J i z q.K & i 5 * < @.C.A.D.` < N B V B V f G.",
"G.B x B V B B B B x H c.D.M.4.[ { 5.l.F.D.F.a.: l B B B V M x G.",
"G. .p J V B B B B f { D.D.D.S.S.S.D.D.F.F.i.; 0 H B V B V 6  .G.",
"G.G.f x V B B B B N u ! M.F.F.F.F.F.C.k._ # 9 m N B B V M p G.G.",
"G.G.7.2 J B B B B N m % q ] 3.u.2.] C - # y n N B B V V 4  .G.G.",
"G.G.G.L f J B B B B N n e # @ @ O # ; e n m N B B B J f M G.G.G.",
"G.G.G.G.j h J B B B N N n y y y y n k m N N B B B J h h G.G.G.G.",
"G.G.G.G.G.h f J V B B B B N N m m N N N B B B V V h f G.G.G.G.G.",
"G.G.G.G.G.G.U f M J V B B B B B B B B B B B V M f V G.G.G.G.G.G.",
"G.G.G.G.G.G.G.| j h M J V B B B B B B V V B h j | G.G.G.G.G.G.G.",
"G.G.G.G.G.G.G.G.G./ B h h M B B V B x j h M / G.G.G.G.G.G.G.G.G.",
"G.G.G.G.G.G.G.G.G.G.G.G./ I V B B J L / G.G.G.G.G.G.G.G.G.G.G.G."
};
